<?xml version="1.0" encoding="UTF-8"?>
<svg height="16px" viewBox="0 0 16 16" width="16px" xmlns="http://www.w3.org/2000/svg">
    <path d="m 12 2 v 1 h 0.40625 c 0.40625 0 0.734375 0.328125 0.738281 0.730469 v 2.0625 v 0.769531 c 0 0.886719 0.269531 1.257812 0.855469 1.4375 c -0.585938 0.179688 -0.855469 0.550781 -0.855469 1.4375 v 0.769531 v 2.0625 c -0.003906 0.402344 -0.332031 0.730469 -0.738281 0.730469 h -0.40625 v 1 h 0.449219 c 1.59375 0 2.410156 -0.820312 2.410156 -2.292969 v -2.21875 c 0 -0.414062 0.21875 -0.605469 0.5625 -0.605469 h 0.578125 v -1.765624 h -0.578125 c -0.34375 0 -0.5625 -0.191407 -0.5625 -0.605469 v -2.21875 c 0 -1.472657 -0.816406 -2.292969 -2.410156 -2.292969 z m 0 0"/>
    <path d="m 6 4 h 4 c 0.550781 0 1 0.449219 1 1 s -0.449219 1 -1 1 h -4 c -0.550781 0 -1 -0.449219 -1 -1 s 0.449219 -1 1 -1 z m 0 0"/>
    <path d="m 6 7 h 4 c 0.550781 0 1 0.449219 1 1 s -0.449219 1 -1 1 h -4 c -0.550781 0 -1 -0.449219 -1 -1 s 0.449219 -1 1 -1 z m 0 0"/>
    <path d="m 6 10 h 4 c 0.550781 0 1 0.449219 1 1 s -0.449219 1 -1 1 h -4 c -0.550781 0 -1 -0.449219 -1 -1 s 0.449219 -1 1 -1 z m 0 0"/>
    <path d="m 4 2 v 1 h -0.410156 c -0.402344 0 -0.734375 0.328125 -0.734375 0.730469 c 0 0.695312 -0.003907 1.683593 -0.003907 2.0625 v 0.769531 c 0 0.886719 -0.265624 1.257812 -0.855468 1.4375 c 0.589844 0.179688 0.855468 0.550781 0.855468 1.4375 v 0.769531 c 0 0.378907 0.003907 1.367188 0.003907 2.0625 c 0 0.402344 0.332031 0.730469 0.734375 0.730469 h 0.410156 v 1 h -0.449219 c -1.59375 0 -2.414062 -0.820312 -2.414062 -2.292969 v -2.21875 c 0 -0.414062 -0.214844 -0.605469 -0.5625 -0.605469 h -0.574219 v -1.765624 h 0.574219 c 0.347656 0 0.5625 -0.191407 0.5625 -0.605469 v -2.21875 c 0 -1.472657 0.820312 -2.292969 2.414062 -2.292969 z m 0 0"/>
</svg>
