<?xml version="1.0" encoding="UTF-8"?>
<svg height="16px" viewBox="0 0 16 16" width="16px" xmlns="http://www.w3.org/2000/svg" xmlns:xlink="http://www.w3.org/1999/xlink">
    <filter id="a" height="100%" width="100%" x="0%" y="0%">
        <feColorMatrix color-interpolation-filters="sRGB" values="0 0 0 0 1 0 0 0 0 1 0 0 0 0 1 0 0 0 1 0"/>
    </filter>
    <mask id="b">
        <g filter="url(#a)">
            <rect fill-opacity="0.302558" height="19.2" width="19.2" x="-1.6" y="-1.6"/>
        </g>
    </mask>
    <clipPath id="c">
        <rect height="152" width="192"/>
    </clipPath>
    <mask id="d">
        <g filter="url(#a)">
            <rect fill-opacity="0.302558" height="19.2" width="19.2" x="-1.6" y="-1.6"/>
        </g>
    </mask>
    <clipPath id="e">
        <rect height="152" width="192"/>
    </clipPath>
    <path d="m 8.832031 0 v 2.007812 h 0.171875 c 0.492188 0 0.734375 0.257813 0.734375 0.710938 v 0.703125 c 0 0.664063 0.214844 0.945313 0.679688 1.078125 c -0.464844 0.132812 -0.679688 0.414062 -0.679688 1.078125 v 0.578125 c 0 0.453125 -0.242187 0.710938 -0.734375 0.710938 h -0.171875 v 2.132812 h 0.355469 c 1.261719 0 1.910156 -0.617188 1.910156 -1.722656 v -1.664063 c 0 -0.304687 0.171875 -0.453125 0.445313 -0.449219 h 0.457031 v -1.285156 h -0.457031 c -0.273438 0 -0.445313 -0.144531 -0.445313 -0.449218 v -1.707032 c 0 -1.105468 -0.648437 -1.722656 -1.910156 -1.722656 z m 0 0"/>
    <path d="m 4.535156 2 h 2.964844 c 0.277344 0 0.5 0.222656 0.5 0.5 s -0.222656 0.5 -0.5 0.5 h -2.964844 c -0.273437 0 -0.5 -0.222656 -0.5 -0.5 s 0.226563 -0.5 0.5 -0.5 z m 0 0"/>
    <g mask="url(#b)">
        <g clip-path="url(#c)" transform="matrix(1 0 0 1 -168 -16)">
            <path d="m 168.46875 26 c -0.054688 0.003906 -0.109375 0.011719 -0.164062 0.03125 c -0.011719 0.007812 -0.027344 0.015625 -0.042969 0.019531 c -0.050781 0.023438 -0.097657 0.054688 -0.136719 0.09375 l -0.003906 0.003907 h -0.003906 c -0.035157 0.039062 -0.066407 0.085937 -0.089844 0.140624 c -0.007813 0.011719 -0.015625 0.027344 -0.019532 0.046876 c -0.019531 0.050781 -0.03125 0.105468 -0.035156 0.160156 v 0.003906 v 0.003906 c 0.003906 0.054688 0.015625 0.113282 0.035156 0.164063 c 0.007813 0.015625 0.011719 0.03125 0.019532 0.046875 c 0.023437 0.046875 0.050781 0.09375 0.089844 0.136718 l 0.003906 0.003907 l 2.0625 2.03125 c 0.199218 0.195312 0.480468 0.171875 0.675781 -0.027344 c 0.195313 -0.195313 0.140625 -0.589844 0.140625 -0.859375 v -1 h 5 v 1 c 0 0.21875 -0.050781 0.6875 0.144531 0.882812 c 0.195313 0.195313 0.511719 0.199219 0.707031 0.003907 l 2.0625 -2.03125 c 0.195313 -0.195313 0.199219 -0.511719 0.003907 -0.707031 c -0.097657 -0.097657 -0.234375 -0.152344 -0.375 -0.144532 c -0.015625 -0.003906 -0.027344 -0.003906 -0.042969 -0.003906 z m 0 0"/>
        </g>
    </g>
    <path d="m 4.535156 4 h 2.964844 c 0.277344 0 0.5 0.222656 0.5 0.5 s -0.222656 0.5 -0.5 0.5 h -2.964844 c -0.273437 0 -0.5 -0.222656 -0.5 -0.5 s 0.226563 -0.5 0.5 -0.5 z m 0 0"/>
    <path d="m 4.535156 6 h 2.964844 c 0.277344 0 0.5 0.222656 0.5 0.5 s -0.222656 0.5 -0.5 0.5 h -2.964844 c -0.273437 0 -0.5 -0.222656 -0.5 -0.5 s 0.226563 -0.5 0.5 -0.5 z m 0 0"/>
    <path d="m 3.167969 0 v 2.007812 h -0.171875 c -0.492188 0 -0.734375 0.257813 -0.734375 0.710938 v 0.703125 c 0 0.664063 -0.214844 0.945313 -0.679688 1.078125 c 0.464844 0.132812 0.679688 0.414062 0.679688 1.078125 v 0.578125 c 0 0.453125 0.242187 0.710938 0.734375 0.710938 h 0.171875 v 2.132812 h -0.355469 c -1.261719 0 -1.910156 -0.617188 -1.910156 -1.722656 v -1.664063 c 0 -0.304687 -0.171875 -0.453125 -0.445313 -0.449219 h -0.457031 v -1.285156 h 0.457031 c 0.273438 0 0.445313 -0.144531 0.445313 -0.449218 v -1.707032 c 0 -1.105468 0.648437 -1.722656 1.910156 -1.722656 z m 0 0"/>
    <g mask="url(#d)">
        <g clip-path="url(#e)" transform="matrix(1 0 0 1 -168 -16)">
            <path d="m 181 24.527344 c 0.003906 0.054687 0.015625 0.109375 0.035156 0.164062 c 0.003906 0.011719 0.011719 0.027344 0.019532 0.042969 c 0.023437 0.050781 0.054687 0.09375 0.089843 0.136719 l 0.003907 0.003906 v 0.003906 c 0.042968 0.039063 0.089843 0.070313 0.140624 0.089844 c 0.011719 0.007812 0.03125 0.015625 0.046876 0.019531 c 0.050781 0.023438 0.105468 0.035157 0.160156 0.035157 h 0.003906 c 0.058594 0 0.113281 -0.011719 0.167969 -0.03125 c 0.015625 -0.007813 0.03125 -0.015626 0.042969 -0.019532 c 0.050781 -0.023437 0.09375 -0.054687 0.136718 -0.089844 l 0.007813 -0.003906 v -0.003906 l 2.03125 -2.0625 c 0.195312 -0.195312 0.171875 -0.476562 -0.027344 -0.671875 c -0.195313 -0.195313 -0.589844 -0.140625 -0.859375 -0.140625 h -1 v -3 h 1 c 0.21875 0 0.6875 0.050781 0.882812 -0.144531 c 0.195313 -0.195313 0.199219 -0.511719 0.003907 -0.707031 l -2.03125 -2.0625 c -0.195313 -0.195313 -0.511719 -0.199219 -0.707031 -0.003907 c -0.097657 0.097657 -0.152344 0.234375 -0.144532 0.375 c -0.003906 0.015625 -0.003906 0.027344 -0.003906 0.042969 v 8.027344 h -0.003906 z m 0 0"/>
        </g>
    </g>
</svg>
